Coordinates
version=1
nRows=4
nColumns=63
inDegrees=yes

Units are S.I. units (second, meters, Newtons, ...)
If the header above contains a line with 'inDegrees', this indicates whether rotational values are in degrees (yes) or radians (no).

endheader
time	pelvis_tilt	pelvis_list	pelvis_rotation	pelvis_tx	pelvis_ty	pelvis_tz	hip_flexion_r	hip_adduction_r	hip_rotation_r	knee_angle_r	knee_angle_r_beta	ankle_angle_r	subtalar_angle_r	mtp_angle_r	hip_flexion_l	hip_adduction_l	hip_rotation_l	knee_angle_l	knee_angle_l_beta	ankle_angle_l	subtalar_angle_l	mtp_angle_l	L5_S1_Flex_Ext	L5_S1_Lat_Bending	L5_S1_axial_rotation	L4_L5_Flex_Ext	L4_L5_Lat_Bending	L4_L5_axial_rotation	L3_L4_Flex_Ext	L3_L4_Lat_Bending	L3_L4_axial_rotation	L2_L3_Flex_Ext	L2_L3_Lat_Bending	L2_L3_axial_rotation	L1_L2_Flex_Ext	L1_L2_Lat_Bending	L1_L2_axial_rotation	L1_T12_Flex_Ext	L1_T12_Lat_Bending	L1_T12_axial_rotation	Abs_r3	Abs_r2	Abs_r1	Abs_t1	Abs_t2	neck_flexion	neck_bending	neck_rotation	arm_flex_r	arm_add_r	arm_rot_r	elbow_flex_r	pro_sup_r	wrist_flex_r	wrist_dev_r	arm_flex_l	arm_add_l	arm_rot_l	elbow_flex_l	pro_sup_l	wrist_flex_l	wrist_dev_l
      3.63333333	     -2.51639242	     -4.36046035	     99.22111975	      0.27180438	      0.72189455	      0.87864969	     -1.47429318	     -0.93607600	     -1.73142224	      2.41061617	      0.04207319	     15.85578981	     -0.64857097	      0.00000000	     -1.03699554	      2.67956845	      4.91102940	      2.14751329	      0.03748118	     15.75322528	     -4.49225813	      0.00000000	     -0.29858875	     -0.45685967	     -1.37931763	     -0.55450916	     -0.60762336	     -1.46552499	     -0.49055145	     -1.11080859	     -1.46552499	     -0.34125708	     -1.11080859	     -1.20690293	     -0.27726951	     -0.93162823	     -1.12069558	     -0.17061361	     -0.70767562	     -1.03448823	     -2.13278956	     -5.16808791	     -7.67135089	      0.00000000	      0.00000000	      6.90919516	     10.44783469	     -3.02890042	     35.62440464	      1.26827915	     33.56912966	    137.30616318	     89.55408833	    -15.10392491	      3.29278299	     -7.00731318	    -18.18804448	     27.09828110	     38.87390560	     86.28027993	     -5.57328022	      9.31506492
      3.65000000	     -2.47887656	     -4.24778605	     99.21022950	      0.27168153	      0.72206602	      0.87847286	     -1.61321010	     -0.89932751	     -1.73100911	      2.39425494	      0.04178763	     15.87760137	     -0.46298660	      0.00000000	     -1.13675500	      2.64191215	      4.85711831	      2.21090654	      0.03858760	     15.79972847	     -4.55269880	      0.00000000	     -0.29303109	     -0.44617306	     -1.46838833	     -0.54418803	     -0.59341018	     -1.56016260	     -0.48142077	     -1.08482519	     -1.56016260	     -0.33490523	     -1.08482519	     -1.28483979	     -0.27210867	     -0.90983611	     -1.19306552	     -0.16743796	     -0.69112208	     -1.10129125	     -2.09309174	     -5.04719894	     -8.16673537	      0.00000000	      0.00000000	      7.17145058	     10.11499840	     -2.65765882	     36.20915943	      1.62845944	     34.09045950	    137.62073006	     89.55818778	    -15.65169396	      4.82051255	     -7.27494369	    -17.94320164	     26.63804714	     38.51975379	     85.90031160	     -5.49469179	      9.34837220
      3.66666667	     -2.49926234	     -4.20280443	     99.17918109	      0.27201901	      0.72215826	      0.87810185	     -1.68815147	     -0.89910080	     -1.63650095	      2.39555913	      0.04181039	     15.88885754	     -0.38611397	      0.00000000	     -1.19256474	      2.64717168	      4.78234982	      2.26231186	      0.03948479	     15.82160336	     -4.59708667	      0.00000000	     -0.27315099	     -0.45204414	     -1.50708022	     -0.50726869	     -0.60121871	     -1.60127273	     -0.44875975	     -1.09910012	     -1.60127273	     -0.31218426	     -1.09910012	     -1.31869519	     -0.25364801	     -0.92180841	     -1.22450268	     -0.15607847	     -0.70021637	     -1.13031016	     -1.95109017	     -5.11361371	     -8.38192805	      0.00000000	      0.00000000	      7.41002237	     10.17457568	     -2.73531227	     36.35632828	      1.92540175	     34.44870590	    137.78826808	     89.56423146	    -15.63002189	      5.04191377	     -7.38680930	    -17.81456041	     26.70060669	     37.94765335	     85.79322902	     -5.47792747	      9.42808045
      3.68333333	     -2.39585832	     -4.11234331	     99.32688419	      0.27160165	      0.72223688	      0.87852037	     -1.79776443	     -0.78995271	     -1.73024196	      2.34187538	      0.04087344	     15.85018512	     -0.28243312	      0.00000000	     -1.11587623	      2.54352011	      4.61088488	      2.54192767	      0.04436501	     16.03401403	     -4.27614377	      0.00000000	     -0.26777161	     -0.42754986	     -1.56502122	     -0.49727866	     -0.56864131	     -1.66283504	     -0.43992198	     -1.03954472	     -1.66283504	     -0.30603617	     -1.03954472	     -1.36939357	     -0.24865272	     -0.87185967	     -1.27157974	     -0.15300470	     -0.66227473	     -1.17376591	     -1.91266583	     -4.83652950	     -8.70417851	      0.00000000	      0.00000000	      7.69188484	     10.04157719	     -2.29896466	     36.71243480	      2.03621039	     34.70874555	    138.34227946	     89.55764992	    -15.53568098	      7.42745603	     -6.99749514	    -17.42823045	     27.69089495	     36.33084453	     84.08681119	     -5.12377334	      8.11784641
